<svg width="34" height="29" viewBox="0 0 34 29" fill="none" xmlns="http://www.w3.org/2000/svg">
<path d="M17 16.3525C19.4872 16.3525 21.7634 17.206 23.4922 18.4316L23.8311 18.6816C25.5487 20.0038 26.8184 21.8364 26.8184 23.6387C26.8183 24.4775 26.5404 25.1754 26.084 25.7285L25.877 25.957C25.3896 26.4504 24.7446 26.8181 24.0088 27.0967L23.6875 27.2109C21.9424 27.794 19.5698 28 17 28C14.5905 28 12.3546 27.8186 10.6465 27.3154L10.3125 27.2109C9.55161 26.9568 8.87199 26.6186 8.34082 26.1602L8.12305 25.957C7.54542 25.372 7.18166 24.5974 7.18164 23.6387C7.18164 21.949 8.29774 20.2329 9.85254 18.9355L10.1689 18.6816C11.9335 17.3235 14.3468 16.3525 17 16.3525ZM5.67188 18.082C4.51831 19.5836 3.63672 21.4714 3.63672 23.6387C3.63672 23.899 3.65022 24.1542 3.67578 24.4043C3.44018 24.3624 3.21704 24.3135 3.00879 24.2549L2.77246 24.1826C2.37901 24.0511 2.00535 23.8703 1.70215 23.6084L1.57617 23.4902C1.23315 23.1426 1 22.6594 1 22.0547C1 21.0283 1.65843 20.0764 2.46582 19.4033L2.62891 19.2725H2.62988C3.43942 18.6494 4.50011 18.1879 5.67188 18.082ZM28.3262 18.0811C29.4152 18.1791 30.4085 18.5849 31.1934 19.1416L31.3701 19.2725H31.3711C32.251 19.9498 33 20.96 33 22.0547C33 22.5841 32.8216 23.0207 32.5469 23.3545L32.4238 23.4902C32.1819 23.7352 31.8828 23.9184 31.5586 24.0576L31.2275 24.1826C30.9544 24.2738 30.6509 24.3461 30.3232 24.4043C30.3488 24.1542 30.3633 23.899 30.3633 23.6387C30.3633 21.4706 29.4803 19.5829 28.3262 18.0811ZM6.9541 7.82324C8.44491 7.82324 9.81819 9.18981 9.81836 11.0879C9.81836 12.9861 8.445 14.3525 6.9541 14.3525C5.46337 14.3523 4.09082 12.986 4.09082 11.0879C4.09099 9.19 5.46346 7.82351 6.9541 7.82324ZM27.0459 7.82324C28.5365 7.82351 29.909 9.19 29.9092 11.0879C29.9092 12.9859 28.5366 14.3523 27.0459 14.3525C25.555 14.3525 24.1816 12.9861 24.1816 11.0879C24.1818 9.18981 25.5551 7.82324 27.0459 7.82324ZM17 1C19.7711 1 22.1815 3.51192 22.1816 6.82324C22.1816 10.1347 19.7711 12.6475 17 12.6475C14.2288 12.6475 11.8184 10.1347 11.8184 6.82324C11.8185 3.51192 14.2289 1 17 1Z" stroke="#004AAD" stroke-width="2"/>
</svg>
