<svg width="32" height="30" viewBox="0 0 32 30" fill="none" xmlns="http://www.w3.org/2000/svg">
<path d="M8.2793 28.0667H22.7718C24.3052 28.0667 25.6095 26.9006 25.843 25.3209C26.2138 22.8102 26.3 20.2652 26.1004 17.7379H28.9036C29.8068 17.7379 30.3545 16.699 29.8703 15.9043L29.3853 15.1083C26.4681 10.321 22.7562 6.1136 18.4231 2.68326L16.9111 1.48627C16.0921 0.837911 14.9589 0.837911 14.1399 1.48627L12.6277 2.6834C8.2947 6.11363 4.58263 10.3209 1.66549 15.1081L1.18036 15.9042C0.696079 16.699 1.24389 17.7379 2.14721 17.7379H4.9505C4.75114 20.2652 4.83711 22.8102 5.20805 25.3209C5.44145 26.9006 6.74571 28.0667 8.2793 28.0667Z" stroke="#004AAD" stroke-width="2" stroke-linecap="round" stroke-linejoin="round"/>
<path d="M15.5256 16.8278C17.6353 16.8278 19.3456 18.6102 19.3456 20.8091V28.0667H11.7056V20.8091C11.7056 18.6102 13.4158 16.8278 15.5256 16.8278Z" stroke="#004AAD" stroke-width="2" stroke-linecap="round" stroke-linejoin="round"/>
</svg>
