<svg width="29" height="27" viewBox="0 0 29 27" fill="none" xmlns="http://www.w3.org/2000/svg">
<path d="M1.08789 10H6.52539C6.54348 10 6.55436 10.002 6.55957 10.0029C6.56193 10.0034 6.56365 10.0037 6.56445 10.0039H6.56543L6.58105 10.0186C6.59696 10.0352 6.60078 10.0443 6.60254 10.0488C6.6048 10.0547 6.6123 10.0764 6.6123 10.125V25.875C6.6123 25.9239 6.6047 25.9456 6.60254 25.9512L6.58105 25.9814C6.57188 25.9909 6.56607 25.995 6.56445 25.9961L6.55957 25.9971C6.55449 25.998 6.54361 26 6.52539 26H1.08789C1.06935 26 1.05779 25.998 1.05273 25.9971C1.04875 25.9963 1.04741 25.9959 1.04785 25.9961C1.04906 25.9966 1.04998 25.9969 1.04883 25.9961L1.03223 25.9814L1.03125 25.9805L1.00977 25.9512C1.00765 25.9457 1 25.9238 1 25.875V10.125C1 10.0762 1.00759 10.0544 1.00977 10.0488L1.03223 10.0186C1.04107 10.0094 1.04618 10.0051 1.04785 10.0039L1.05273 10.0029C1.05785 10.002 1.06931 10 1.08789 10ZM11.7812 1H17.2188C17.2373 1 17.2488 1.00195 17.2539 1.00293C17.2567 1.00348 17.2583 1.00374 17.2588 1.00391L17.2754 1.01855C17.2911 1.03497 17.2951 1.04434 17.2969 1.04883C17.2992 1.05497 17.3066 1.07694 17.3066 1.125V25.875C17.3066 25.9236 17.2991 25.9455 17.2969 25.9512L17.2744 25.9814C17.2659 25.9903 17.2607 25.9947 17.2588 25.9961H17.2578C17.2571 25.9963 17.2558 25.9967 17.2539 25.9971C17.2488 25.998 17.2373 26 17.2188 26H11.7812C11.7632 26 11.7523 25.998 11.7471 25.9971C11.7448 25.9966 11.7429 25.9963 11.7422 25.9961L11.7256 25.9814L11.7246 25.9805L11.7031 25.9512C11.701 25.9458 11.6934 25.9238 11.6934 25.875V1.125C11.6934 1.0762 11.7009 1.05441 11.7031 1.04883L11.7256 1.01855C11.7346 1.00918 11.7407 1.00496 11.7422 1.00391C11.7432 1.0032 11.7423 1.00344 11.7412 1.00391C11.7409 1.00402 11.7423 1.00368 11.7461 1.00293C11.7512 1.00196 11.7627 1 11.7812 1ZM22.4746 13H27.9121C27.9307 13 27.9421 13.0019 27.9473 13.0029C27.9498 13.0034 27.9514 13.0037 27.9521 13.0039L27.9688 13.0186C27.9846 13.0351 27.9885 13.0443 27.9902 13.0488C27.9925 13.0548 28 13.0766 28 13.125V25.875C28 25.9239 27.9924 25.9456 27.9902 25.9512L27.9688 25.9814C27.9596 25.9909 27.9538 25.9949 27.9521 25.9961L27.9473 25.9971C27.9422 25.998 27.9306 26 27.9121 26H22.4746C22.4563 26 22.4455 25.998 22.4404 25.9971C22.4377 25.9965 22.4361 25.9963 22.4355 25.9961L22.4199 25.9814L22.4189 25.9805L22.3975 25.9512C22.3953 25.9458 22.3877 25.9238 22.3877 25.875V13.125C22.3877 13.0762 22.3953 13.0544 22.3975 13.0488L22.4189 13.0186C22.428 13.0092 22.434 13.005 22.4355 13.0039L22.4404 13.0029C22.4456 13.002 22.4565 13 22.4746 13Z" stroke="#004AAD" stroke-width="2"/>
</svg>
