<svg width="25" height="30" viewBox="0 0 25 30" fill="none" xmlns="http://www.w3.org/2000/svg">
<path d="M1 8.38547H23.2722V24.3806C23.2722 25.3582 22.8815 26.2958 22.1862 26.9871C21.4909 27.6784 20.5478 28.0668 19.5645 28.0668H4.7077C3.72436 28.0668 2.78129 27.6784 2.08596 26.9871C1.39063 26.2958 1 25.3582 1 24.3806V8.38547Z" stroke="#004AAD" stroke-width="2" stroke-miterlimit="10"/>
<path d="M5.9523 12.0715V7.14799C5.9523 5.51744 6.60381 3.95368 7.7635 2.8007C8.92319 1.64773 10.4961 1 12.1361 1C13.7762 1 15.3491 1.64773 16.5088 2.8007C17.6684 3.95368 18.32 5.51744 18.32 7.14799V12.0715" stroke="#004AAD" stroke-width="2" stroke-miterlimit="10"/>
</svg>
