<svg width="31" height="30" viewBox="0 0 31 30" fill="none" xmlns="http://www.w3.org/2000/svg">
<path d="M24.7527 17.452C27.4397 17.4514 29.4412 15.3047 29.053 12.7231C28.0867 6.30764 22.3278 1 15.2622 1C7.56282 1 1.32275 7.05907 1.32275 14.5333C1.32275 22.0076 7.56348 28.0667 15.2622 28.0667C17.348 28.0667 18.8989 27.6516 19.2015 26.4485C19.5047 25.2446 19.092 24.9211 17.6864 21.5945C16.9677 19.8932 17.7488 18.3272 18.8989 17.7697C19.9912 17.2394 22.3955 17.4527 24.7527 17.452Z" stroke="#004AAD" stroke-width="2" stroke-linecap="round" stroke-linejoin="round"/>
<path d="M14.5953 8.08889C14.5953 8.94348 14.9449 9.76306 15.5672 10.3673C16.1895 10.9716 17.0334 11.3111 17.9135 11.3111C18.7935 11.3111 19.6375 10.9716 20.2597 10.3673C20.882 9.76306 21.2316 8.94348 21.2316 8.08889C21.2316 7.2343 20.882 6.41472 20.2597 5.81044C19.6375 5.20615 18.7935 4.86667 17.9135 4.86667C17.0334 4.86667 16.1895 5.20615 15.5672 5.81044C14.9449 6.41472 14.5953 7.2343 14.5953 8.08889Z" stroke="#004AAD" stroke-width="2" stroke-linecap="round" stroke-linejoin="round"/>
<path d="M5.96808 12.9224C5.96808 13.6915 6.28271 14.4291 6.84275 14.973C7.40279 15.5168 8.16237 15.8224 8.95439 15.8224C9.74641 15.8224 10.506 15.5168 11.066 14.973C11.6261 14.4291 11.9407 13.6915 11.9407 12.9224C11.9407 12.1533 11.6261 11.4156 11.066 10.8718C10.506 10.3279 9.74641 10.0224 8.95439 10.0224C8.16237 10.0224 7.40279 10.3279 6.84275 10.8718C6.28271 11.4156 5.96808 12.1533 5.96808 12.9224Z" stroke="#004AAD" stroke-width="2" stroke-linecap="round" stroke-linejoin="round"/>
<path d="M9.28625 21.2998C9.28625 21.898 9.53097 22.4718 9.96655 22.8948C10.4021 23.3178 10.9929 23.5554 11.6089 23.5554C12.225 23.5554 12.8157 23.3178 13.2513 22.8948C13.6869 22.4718 13.9316 21.898 13.9316 21.2998C13.9316 20.7016 13.6869 20.1279 13.2513 19.7049C12.8157 19.2819 12.225 19.0443 11.6089 19.0443C10.9929 19.0443 10.4021 19.2819 9.96655 19.7049C9.53097 20.1279 9.28625 20.7016 9.28625 21.2998Z" stroke="#004AAD" stroke-width="2" stroke-linecap="round" stroke-linejoin="round"/>
</svg>
